<?xml version="1.0" encoding="utf-8"?>
<!-- Generator: Adobe Illustrator 25.4.1, SVG Export Plug-In . SVG Version: 6.00 Build 0)  -->
<svg version="1.1" id="Layer_1" xmlns="http://www.w3.org/2000/svg" xmlns:xlink="http://www.w3.org/1999/xlink" x="0px" y="0px"
	 viewBox="0 0 469.7 90.6" style="enable-background:new 0 0 469.7 90.6;" xml:space="preserve">
<style type="text/css">
	.st0{fill:#FFFFFF;}
	.st1{fill:none;stroke:#FFFFFF;stroke-width:2.6696;stroke-miterlimit:10;}
</style>
<g>
	<path class="st0" d="M139.9,31.1h-5.8v-2.5h14.5v2.5h-5.8v16.3h-2.8V31.1z"/>
	<path class="st0" d="M164.7,39h-10.4v8.4h-2.8V28.6h2.8v7.9h10.4v-7.9h2.8v18.8h-2.8V39z"/>
	<path class="st0" d="M171.7,28.6h12.6v2.5h-9.8v5.5h9.6V39h-9.6v5.9h9.8v2.5h-12.6V28.6z"/>
	<path class="st0" d="M195.1,28.6h2.8v18.8h-2.8V28.6z"/>
	<path class="st0" d="M205,32.9v14.4h-2.8V28.6h2.9l10.2,14.1V28.6h2.8v18.8h-2.7L205,32.9z"/>
	<path class="st0" d="M226.9,31.1H221v-2.5h14.5v2.5h-5.8v16.3h-2.8V31.1z"/>
	<path class="st0" d="M238.4,28.6H251v2.5h-9.8v5.5h9.6V39h-9.6v5.9h9.8v2.5h-12.6V28.6z"/>
	<path class="st0" d="M263.5,28.3c3.5,0,5.9,1.6,7.4,3.7l-2.3,1.3c-1.1-1.4-3-2.5-5.2-2.5c-3.9,0-6.8,3-6.8,7.2
		c0,4.2,2.9,7.2,6.8,7.2c2.1,0,3.9-1,4.8-1.9V40h-6v-2.5h8.8v6.9c-1.8,2-4.4,3.3-7.6,3.3c-5.4,0-9.8-3.9-9.8-9.8
		C253.8,32.1,258.1,28.3,263.5,28.3z"/>
	<path class="st0" d="M281.1,40.1h-3.5v7.2h-2.8V28.6h7.9c3.6,0,6,2.3,6,5.8c0,3.4-2.3,5.2-4.7,5.5l4.8,7.5h-3.3L281.1,40.1z
		 M282.3,31.1h-4.7v6.6h4.7c2,0,3.5-1.3,3.5-3.3S284.3,31.1,282.3,31.1z"/>
	<path class="st0" d="M292.1,28.6h2.8v18.8h-2.8V28.6z"/>
	<path class="st0" d="M303.8,31.1h-5.8v-2.5h14.5v2.5h-5.8v16.3h-2.8V31.1z"/>
	<path class="st0" d="M320.7,39.5l-7.4-10.9h3.2l5.5,8.4l5.5-8.4h3.3l-7.3,10.9v7.9h-2.8V39.5z"/>
	<path class="st0" d="M339.6,38c0-5.8,4.3-9.7,9.6-9.7c3.7,0,6,1.8,7.5,4l-2.4,1.3c-1-1.6-2.8-2.7-5.1-2.7c-3.8,0-6.7,3-6.7,7.2
		c0,4.2,2.9,7.2,6.7,7.2c2.2,0,4.1-1.2,5.1-2.7l2.4,1.3c-1.5,2.2-3.8,4-7.5,4C343.9,47.7,339.6,43.8,339.6,38z"/>
	<path class="st0" d="M368.2,28.3c5.6,0,9.5,4.1,9.5,9.7c0,5.6-3.9,9.7-9.5,9.7s-9.5-4.1-9.5-9.7C358.8,32.4,362.6,28.3,368.2,28.3z
		 M368.2,30.8c-4,0-6.6,3.1-6.6,7.2c0,4.1,2.5,7.2,6.6,7.2c4,0,6.6-3.1,6.6-7.2C374.8,33.8,372.2,30.8,368.2,30.8z"/>
	<path class="st0" d="M381.1,28.6h2.8v11.4c0,3.2,1.8,5.3,5.1,5.3c3.3,0,5-2.1,5-5.3V28.6h2.8V40c0,4.7-2.6,7.7-7.9,7.7
		s-7.9-3.1-7.9-7.7V28.6z"/>
	<path class="st0" d="M403.9,32.9v14.4h-2.8V28.6h2.9l10.2,14.1V28.6h2.8v18.8h-2.7L403.9,32.9z"/>
	<path class="st0" d="M420.5,38c0-5.8,4.3-9.7,9.6-9.7c3.7,0,6,1.8,7.5,4l-2.4,1.3c-1-1.6-2.8-2.7-5.1-2.7c-3.8,0-6.7,3-6.7,7.2
		c0,4.2,2.9,7.2,6.7,7.2c2.2,0,4.1-1.2,5.1-2.7l2.4,1.3c-1.5,2.2-3.8,4-7.5,4C424.7,47.7,420.5,43.8,420.5,38z"/>
	<path class="st0" d="M440.4,28.6h2.8v18.8h-2.8V28.6z"/>
	<path class="st0" d="M447.4,28.6h2.8v16.3h8.5v2.5h-11.4V28.6z"/>
	<path class="st0" d="M134.4,57.2h6.8v1.3h-5.3v3h5.2v1.3h-5.2v4.5h-1.5V57.2z"/>
	<path class="st0" d="M149,57c3,0,5.1,2.2,5.1,5.2c0,3-2.1,5.2-5.1,5.2s-5.1-2.2-5.1-5.2C143.9,59.2,145.9,57,149,57z M149,58.4
		c-2.2,0-3.5,1.7-3.5,3.9c0,2.2,1.4,3.9,3.5,3.9c2.1,0,3.5-1.7,3.5-3.9C152.5,60,151.1,58.4,149,58.4z"/>
	<path class="st0" d="M160.8,63.4h-1.9v3.9h-1.5V57.2h4.3c1.9,0,3.3,1.2,3.3,3.1c0,1.8-1.2,2.8-2.5,3l2.6,4.1h-1.8L160.8,63.4z
		 M161.5,58.5h-2.6v3.6h2.6c1.1,0,1.9-0.7,1.9-1.8S162.6,58.5,161.5,58.5z"/>
	<path class="st0" d="M176.1,58.5H173v-1.3h7.8v1.3h-3.1v8.8h-1.5V58.5z"/>
	<path class="st0" d="M190.9,62.8h-5.6v4.5h-1.5V57.2h1.5v4.3h5.6v-4.3h1.5v10.1h-1.5V62.8z"/>
	<path class="st0" d="M196.2,57.2h6.8v1.3h-5.3v3h5.2v1.3h-5.2V66h5.3v1.3h-6.8V57.2z"/>
	<path class="st0" d="M210.7,57.2h1.7l3.2,8.5l3.3-8.5h1.7l-4,10.1h-1.9L210.7,57.2z"/>
	<path class="st0" d="M227.7,57c3,0,5.1,2.2,5.1,5.2c0,3-2.1,5.2-5.1,5.2s-5.1-2.2-5.1-5.2C222.6,59.2,224.7,57,227.7,57z
		 M227.7,58.4c-2.2,0-3.5,1.7-3.5,3.9c0,2.2,1.4,3.9,3.5,3.9c2.1,0,3.5-1.7,3.5-3.9C231.2,60,229.8,58.4,227.7,58.4z"/>
	<path class="st0" d="M236.1,57.2h1.5V66h4.6v1.3h-6.1V57.2z"/>
	<path class="st0" d="M245,57.2h1.5v6.1c0,1.7,1,2.8,2.7,2.8c1.8,0,2.7-1.1,2.7-2.8v-6.1h1.5v6.2c0,2.5-1.4,4.2-4.3,4.2
		s-4.3-1.7-4.3-4.2V57.2z"/>
	<path class="st0" d="M258.7,59.5v7.8h-1.5V57.2h1.6l5.5,7.6v-7.6h1.5v10.1h-1.5L258.7,59.5z"/>
	<path class="st0" d="M272,58.5h-3.1v-1.3h7.8v1.3h-3.1v8.8H272V58.5z"/>
	<path class="st0" d="M285.1,65.2h-5l-0.8,2.1h-1.7l4-10.1h1.9l4,10.1h-1.7L285.1,65.2z M280.6,63.9h4.1l-2.1-5.4L280.6,63.9z"/>
	<path class="st0" d="M293.7,63.4h-1.9v3.9h-1.5V57.2h4.3c1.9,0,3.3,1.2,3.3,3.1c0,1.8-1.2,2.8-2.5,3l2.6,4.1h-1.8L293.7,63.4z
		 M294.4,58.5h-2.6v3.6h2.6c1.1,0,1.9-0.7,1.9-1.8S295.5,58.5,294.4,58.5z"/>
	<path class="st0" d="M303.8,63.1l-4-5.9h1.7l3,4.5l3-4.5h1.8l-4,5.9v4.2h-1.5V63.1z"/>
	<path class="st0" d="M316.9,62.3c0-3.1,2.3-5.2,5.2-5.2c2,0,3.2,1,4,2.1l-1.3,0.7c-0.5-0.9-1.5-1.5-2.7-1.5c-2.1,0-3.6,1.6-3.6,3.9
		c0,2.3,1.6,3.9,3.6,3.9c1.2,0,2.2-0.6,2.7-1.5l1.3,0.7c-0.8,1.2-2,2.1-4,2.1C319.2,67.5,316.9,65.4,316.9,62.3z"/>
	<path class="st0" d="M335.5,65.2h-5l-0.8,2.1H328l4-10.1h1.9l4,10.1h-1.7L335.5,65.2z M331,63.9h4.1l-2.1-5.4L331,63.9z"/>
	<path class="st0" d="M344.1,63.4h-1.9v3.9h-1.5V57.2h4.3c1.9,0,3.3,1.2,3.3,3.1c0,1.8-1.2,2.8-2.5,3l2.6,4.1h-1.8L344.1,63.4z
		 M344.7,58.5h-2.6v3.6h2.6c1.1,0,1.9-0.7,1.9-1.8S345.8,58.5,344.7,58.5z"/>
	<path class="st0" d="M351.5,57.2h4.8c1.8,0,2.9,1.1,2.9,2.6c0,1.3-0.8,2.1-1.8,2.3c1.1,0.2,2,1.3,2,2.5c0,1.6-1.1,2.7-2.9,2.7h-4.9
		V57.2z M356,61.5c1,0,1.6-0.6,1.6-1.5c0-0.8-0.6-1.5-1.6-1.5h-3v3H356z M356.1,66c1.1,0,1.7-0.6,1.7-1.6c0-0.8-0.6-1.6-1.7-1.6h-3
		V66H356.1z"/>
	<path class="st0" d="M367.4,57c3,0,5.1,2.2,5.1,5.2c0,3-2.1,5.2-5.1,5.2s-5.1-2.2-5.1-5.2C362.3,59.2,364.3,57,367.4,57z
		 M367.4,58.4c-2.2,0-3.5,1.7-3.5,3.9c0,2.2,1.4,3.9,3.5,3.9c2.1,0,3.5-1.7,3.5-3.9C370.9,60,369.5,58.4,367.4,58.4z"/>
	<path class="st0" d="M377.3,59.5v7.8h-1.5V57.2h1.6l5.5,7.6v-7.6h1.5v10.1h-1.5L377.3,59.5z"/>
	<path class="st0" d="M402.2,59.3l-3.3,8.1h-0.6l-3.3-8.1v8.1h-1.5V57.2h2.2l3,7.3l3-7.3h2.2v10.1h-1.5V59.3z"/>
	<path class="st0" d="M413.8,65.2h-5l-0.8,2.1h-1.7l4-10.1h1.9l4,10.1h-1.7L413.8,65.2z M409.3,63.9h4.1l-2.1-5.4L409.3,63.9z"/>
	<path class="st0" d="M422.4,63.4h-1.9v3.9H419V57.2h4.3c1.9,0,3.3,1.2,3.3,3.1c0,1.8-1.2,2.8-2.5,3l2.6,4.1h-1.8L422.4,63.4z
		 M423.1,58.5h-2.6v3.6h2.6c1.1,0,1.9-0.7,1.9-1.8S424.2,58.5,423.1,58.5z"/>
	<path class="st0" d="M432.4,62.9l-1,1.1v3.3h-1.5V57.2h1.5v5l4.2-5h1.9l-4.2,4.8l4.5,5.3H436L432.4,62.9z"/>
	<path class="st0" d="M440.6,57.2h6.8v1.3h-5.3v3h5.2v1.3h-5.2V66h5.3v1.3h-6.8V57.2z"/>
	<path class="st0" d="M453.3,58.5h-3.1v-1.3h7.8v1.3h-3.1v8.8h-1.5V58.5z"/>
</g>
<g>
	<path class="st0" d="M111.5,16.1c0-2.4,0.5-3.3,1.1-3.3h0.3c0.7,0,1.1,0.8,1.1,3.3v62.1c0,2.4-0.5,3.2-1.1,3.2h-0.3
		c-0.7,0-1.1-0.8-1.1-3.2V16.1z"/>
</g>
<path class="st0" d="M34.1,44.8C34.1,24.7,49.3,11,68.4,11c14.9,0,23.2,7.8,27.8,16l-12,5.9c-2.7-5.3-8.6-9.5-15.9-9.5
	c-11.4,0-20,9.1-20,21.5c0,12.3,8.6,21.5,20,21.5c7.2,0,13.1-4.1,15.9-9.5l12,5.8c-4.7,8.1-12.9,16.1-27.8,16.1
	C49.3,78.6,34.1,64.9,34.1,44.8z M12.2,35.7h12.4v39.9H12.2V35.7z"/>
<g>
	<path class="st1" d="M10.9,19.3c0-4.1,3.4-7.4,7.4-7.4c4.1,0,7.4,3.3,7.4,7.4s-3.3,7.4-7.4,7.4C14.4,26.7,10.9,23.4,10.9,19.3z"/>
</g>
</svg>
